<?xml version="1.0" encoding="UTF-8"?>
<svg width="838px" height="1256px" viewBox="0 0 838 1256" version="1.1" xmlns="http://www.w3.org/2000/svg" xmlns:xlink="http://www.w3.org/1999/xlink">
    <!-- Generator: Sketch 58 (84663) - https://sketch.com -->
    <title>ic_link copy 2</title>
    <desc>Created with Sketch.</desc>
    <g id="Page-1" stroke="none" stroke-width="1" fill="none" fill-rule="evenodd" opacity="0.049282">
        <g id="Desktop-HD" transform="translate(-602.000000, 0.000000)" fill="#FFFFFF">
            <g id="ic_link-copy-2" transform="translate(1106.896903, 563.533145) rotate(-20.500000) translate(-1106.896903, -563.533145) translate(342.396903, -200.966855)">
                <g id="Icon-24px" transform="translate(766.444004, 764.723570) rotate(-45.000000) translate(-766.444004, -764.723570) translate(39.944004, 410.723570)">
                    <path d="M138.03222,353.906814 C138.03222,233.02677 238.95466,134.767553 363.111043,134.767553 L653.53533,134.767553 L653.53533,0.456393203 L363.111043,0.456393203 C162.718284,0.456393203 0.080683248,158.802182 0.080683248,353.906814 C0.080683248,549.011447 162.718284,707.357236 363.111043,707.357236 L653.53533,707.357236 L653.53533,573.046076 L363.111043,573.046076 C238.95466,573.046076 138.03222,474.786859 138.03222,353.906814 L138.03222,353.906814 Z M435.717114,424.596899 L1016.56569,424.596899 L1016.56569,283.21673 L435.717114,283.21673 L435.717114,424.596899 L435.717114,424.596899 Z M1089.17176,0.456393203 L798.747474,0.456393203 L798.747474,134.767553 L1089.17176,134.767553 C1213.32814,134.767553 1314.25058,233.02677 1314.25058,353.906814 C1314.25058,474.786859 1213.32814,573.046076 1089.17176,573.046076 L798.747474,573.046076 L798.747474,707.357236 L1089.17176,707.357236 C1289.56452,707.357236 1452.20212,549.011447 1452.20212,353.906814 C1452.20212,158.802182 1289.56452,0.456393203 1089.17176,0.456393203 L1089.17176,0.456393203 Z" id="Shape"></path>
                </g>
            </g>
        </g>
    </g>
</svg>